<svg xmlns="http://www.w3.org/2000/svg" viewBox="0 0 400 300">
  <defs>
    <linearGradient id="bg" x1="0%" y1="0%" x2="100%" y2="100%">
      <stop offset="0%" style="stop-color:#e3f2fd"/>
      <stop offset="100%" style="stop-color:#bbdefb"/>
    </linearGradient>
  </defs>
  <rect width="400" height="300" rx="16" fill="url(#bg)"/>
  <!-- Card -->
  <rect x="100" y="70" width="180" height="120" rx="12" fill="#fff" stroke="#1565c0" stroke-width="2"/>
  <rect x="115" y="85" width="50" height="55" rx="6" fill="#e3f2fd" stroke="#1565c0" stroke-width="1.5"/>
  <circle cx="140" cy="100" r="12" fill="#1565c0"/>
  <path d="M125 130 Q140 118 155 130" fill="#1565c0"/>
  <rect x="180" y="90" width="85" height="6" rx="3" fill="#64b5f6"/>
  <rect x="180" y="105" width="70" height="6" rx="3" fill="#90caf9"/>
  <rect x="180" y="120" width="60" height="6" rx="3" fill="#90caf9"/>
  <!-- Pencil edit icon -->
  <g transform="translate(280, 80)">
    <circle cx="0" cy="0" r="20" fill="#1565c0"/>
    <path d="M-8 6 L4-6 L8-2 L-4 10 Z" fill="#fff"/>
    <path d="M5-7 L9-3" stroke="#fff" stroke-width="2" stroke-linecap="round"/>
    <line x1="-9" y1="11" x2="-2" y2="11" stroke="#fff" stroke-width="2" stroke-linecap="round"/>
  </g>
  <!-- Update arrows -->
  <g transform="translate(200, 220)">
    <circle cx="0" cy="0" r="22" fill="#1565c0" opacity="0.15"/>
    <path d="M-10-5 A12 12 0 0 1 10-5" fill="none" stroke="#1565c0" stroke-width="2.5" stroke-linecap="round"/>
    <path d="M10 5 A12 12 0 0 1 -10 5" fill="none" stroke="#1565c0" stroke-width="2.5" stroke-linecap="round"/>
    <polygon points="10,-5 6,-9 14,-7" fill="#1565c0"/>
    <polygon points="-10,5 -6,9 -14,7" fill="#1565c0"/>
  </g>
  <text x="200" y="268" text-anchor="middle" fill="#1565c0" font-size="18" font-weight="bold" font-family="Arial, sans-serif">Aadhaar Update</text>
</svg>
