<svg xmlns="http://www.w3.org/2000/svg" viewBox="0 0 400 300">
  <defs>
    <linearGradient id="bg" x1="0%" y1="0%" x2="100%" y2="100%">
      <stop offset="0%" style="stop-color:#e8eaf6"/>
      <stop offset="100%" style="stop-color:#c5cae9"/>
    </linearGradient>
  </defs>
  <rect width="400" height="300" rx="16" fill="url(#bg)"/>
  <!-- Document -->
  <rect x="140" y="50" width="120" height="150" rx="8" fill="#fff" stroke="#283593" stroke-width="2"/>
  <rect x="155" y="70" width="90" height="6" rx="3" fill="#7986cb"/>
  <rect x="155" y="85" width="75" height="6" rx="3" fill="#9fa8da"/>
  <rect x="155" y="100" width="80" height="6" rx="3" fill="#9fa8da"/>
  <rect x="155" y="115" width="60" height="6" rx="3" fill="#9fa8da"/>
  <rect x="155" y="130" width="70" height="6" rx="3" fill="#c5cae9"/>
  <rect x="155" y="145" width="50" height="6" rx="3" fill="#c5cae9"/>
  <rect x="155" y="160" width="65" height="6" rx="3" fill="#c5cae9"/>
  <!-- Download arrow -->
  <g transform="translate(200, 235)">
    <circle cx="0" cy="0" r="28" fill="#283593" opacity="0.15"/>
    <circle cx="0" cy="0" r="22" fill="#283593"/>
    <line x1="0" y1="-10" x2="0" y2="6" stroke="#fff" stroke-width="3" stroke-linecap="round"/>
    <polygon points="0,10 -7,2 7,2" fill="#fff"/>
    <line x1="-8" y1="13" x2="8" y2="13" stroke="#fff" stroke-width="2.5" stroke-linecap="round"/>
  </g>
  <text x="200" y="285" text-anchor="middle" fill="#283593" font-size="16" font-weight="bold" font-family="Arial, sans-serif">e-Aadhaar Download</text>
</svg>
