<svg xmlns="http://www.w3.org/2000/svg" viewBox="0 0 400 300">
  <defs>
    <linearGradient id="bg" x1="0%" y1="0%" x2="100%" y2="100%">
      <stop offset="0%" style="stop-color:#e8f5e9"/>
      <stop offset="100%" style="stop-color:#c8e6c9"/>
    </linearGradient>
  </defs>
  <rect width="400" height="300" rx="16" fill="url(#bg)"/>
  <!-- Certificate -->
  <rect x="100" y="35" width="200" height="160" rx="10" fill="#fff" stroke="#2e7d32" stroke-width="2.5"/>
  <rect x="110" y="45" width="180" height="140" rx="6" fill="none" stroke="#2e7d32" stroke-width="0.5" stroke-dasharray="4 2"/>
  <text x="200" y="70" text-anchor="middle" fill="#2e7d32" font-size="11" font-weight="bold" font-family="Arial">MUNICIPAL CORPORATION</text>
  <text x="200" y="90" text-anchor="middle" fill="#2e7d32" font-size="14" font-weight="bold" font-family="Arial">BIRTH CERTIFICATE</text>
  <line x1="140" y1="97" x2="260" y2="97" stroke="#2e7d32" stroke-width="1"/>
  <rect x="130" y="110" width="140" height="5" rx="2.5" fill="#81c784"/>
  <rect x="130" y="122" width="120" height="5" rx="2.5" fill="#c8e6c9"/>
  <rect x="130" y="134" width="130" height="5" rx="2.5" fill="#c8e6c9"/>
  <rect x="130" y="146" width="100" height="5" rx="2.5" fill="#c8e6c9"/>
  <rect x="130" y="158" width="110" height="5" rx="2.5" fill="#c8e6c9"/>
  <circle cx="245" cy="170" r="10" fill="none" stroke="#2e7d32" stroke-width="1.5"/>
  <!-- Baby icon -->
  <g transform="translate(200, 238)">
    <circle cx="0" cy="0" r="22" fill="#2e7d32" opacity="0.12"/>
    <circle cx="0" cy="-6" r="10" fill="#2e7d32" opacity="0.5"/>
    <path d="M-12 8 Q-10 0 0 0 Q10 0 12 8 Q10 16 0 18 Q-10 16 -12 8 Z" fill="#2e7d32" opacity="0.3"/>
    <!-- Star -->
    <polygon points="0,-3 1.5,0 4,-1 2.5,2 4,4.5 1.5,3.5 0,5.5 -1.5,3.5 -4,4.5 -2.5,2 -4,-1 -1.5,0" fill="#fff" opacity="0.8" transform="translate(0, -6) scale(0.6)"/>
  </g>
  <text x="200" y="280" text-anchor="middle" fill="#2e7d32" font-size="18" font-weight="bold" font-family="Arial, sans-serif">Birth Certificate</text>
</svg>
